Coordinates
version=1
nRows=9
nColumns=24
inDegrees=yes

Units are S.I. units (second, meters, Newtons, ...)
Angles are in degrees.

endheader
time	pelvis_tilt	pelvis_list	pelvis_rotation	pelvis_tx	pelvis_ty	pelvis_tz	hip_flexion_r	hip_adduction_r	hip_rotation_r	knee_angle_r	ankle_angle_r	subtalar_angle_r	mtp_angle_r	hip_flexion_l	hip_adduction_l	hip_rotation_l	knee_angle_l	ankle_angle_l	subtalar_angle_l	mtp_angle_l	lumbar_extension	lumbar_bending	lumbar_rotation
      0.75900000	     -0.26142944	      3.20455508	     10.02157104	      0.02896342	      0.98544953	      0.22611923	     31.25753136	     -7.17669073	     -7.43499289	     -4.58169211	      9.71076262	     -5.41186568	      5.47464359	    -18.69285952	      3.60134200	     12.13562196	    -11.30672344	     17.59070075	     -3.08530574	     -2.00075798	     -3.47369605	     -5.67955283	     -8.64097084
      0.76316667	     -0.24765887	      3.13430804	     10.24367152	      0.03534045	      0.98485208	      0.22653641	     31.21653823	     -7.15699504	     -7.31557026	     -5.23102228	      9.69812541	     -5.91036301	      5.49358814	    -18.89043932	      3.36086267	     12.14875353	    -11.62767556	     17.41985787	     -2.93009828	     -1.98201393	     -3.39291065	     -5.60814540	     -8.86363360
      0.76733333	     -0.22882600	      3.04928055	     10.46701478	      0.04177639	      0.98428586	      0.22697577	     31.14568961	     -7.11265157	     -7.20826795	     -5.83786644	      9.58530455	     -6.45015060	      5.52919588	    -19.07912031	      3.09919141	     12.13226814	    -11.96968519	     17.24273195	     -2.74163451	     -1.93048886	     -3.30209547	     -5.51863489	     -9.07021229
      0.77150000	     -0.21209761	      2.95354562	     10.68585237	      0.04827203	      0.98374096	      0.22744586	     31.06684150	     -7.04837587	     -7.12271534	     -6.42774946	      9.41734422	     -6.98513687	      5.58314210	    -19.25822846	      2.82500884	     12.10931462	    -12.32149690	     17.03940293	     -2.55277987	     -1.84755985	     -3.19790501	     -5.42215995	     -9.25934688
      0.77566667	     -0.19749395	      2.84749856	     10.90108365	      0.05482349	      0.98321312	      0.22794777	     30.97873752	     -6.96520409	     -7.04914748	     -6.99317333	      9.17796782	     -7.53220769	      5.65944177	    -19.42642192	      2.53669452	     12.06524334	    -12.68299107	     16.81176366	     -2.36527757	     -1.72865696	     -3.08973506	     -5.31689858	     -9.44505877
      0.77983333	     -0.18723259	      2.73725665	     11.11482706	      0.06140911	      0.98271092	      0.22849101	     30.88013895	     -6.86649552	     -6.97261048	     -7.52036735	      8.86883255	     -8.12205723	      5.78206891	    -19.57229448	      2.24288480	     12.00852315	    -13.07494063	     16.57239827	     -2.17870028	     -1.54042565	     -2.97565377	     -5.22551658	     -9.62417840
      0.78400000	     -0.16872050	      2.60980485	     11.31825092	      0.06805800	      0.98223912	      0.22906046	     30.76769471	     -6.73971900	     -6.92379224	     -8.02562251	      8.47924997	     -8.70718810	      5.94006900	    -19.72549817	      1.92911537	     11.94029907	    -13.45840105	     16.28523538	     -1.99245560	     -1.29914850	     -2.84976339	     -5.10401834	     -9.79555302
      0.78816667	     -0.17758953	      2.46326404	     11.50390827	      0.07479261	      0.98175872	      0.22964720	     30.69126508	     -6.59141145	     -6.92956360	     -8.53073208	      8.01222542	     -9.18977031	      6.06776416	    -19.85425837	      1.60793179	     11.88334116	    -13.82330756	     15.94449349	     -1.84131574	     -1.10214388	     -2.66723748	     -4.95350956	     -9.93266972
      0.79233333	     -0.15272586	      2.30546442	     11.68654640	      0.08153745	      0.98132698	      0.23030945	     30.56222823	     -6.40891395	     -6.89525277	     -8.97835749	      7.46753385	     -9.83313898	      7.77339043	    -19.96284313	      1.24858388	     11.62389196	    -14.27976890	     15.62187158	     -1.44347353	      1.42545557	     -2.51360439	     -4.82295394	     -9.91642051
